<svg width="13" height="14" viewBox="0 0 13 14" fill="none" xmlns="http://www.w3.org/2000/svg">
<path d="M12.3154 9.72233V11.3704C12.3161 11.5233 12.2827 11.6748 12.2175 11.815C12.1522 11.9551 12.0565 12.081 11.9365 12.1844C11.8165 12.2878 11.6748 12.3666 11.5205 12.4156C11.3662 12.4646 11.2027 12.4828 11.0405 12.469C9.24086 12.2854 7.51219 11.7077 5.99338 10.7826C4.58033 9.93914 3.3823 8.81382 2.48439 7.48652C1.49601 6.0534 0.880918 4.42175 0.688951 2.72374C0.674336 2.57183 0.693557 2.41872 0.745388 2.27417C0.797219 2.12962 0.880525 1.99679 0.990003 1.88414C1.09948 1.77149 1.23273 1.68148 1.38127 1.61985C1.52981 1.55822 1.69038 1.52632 1.85277 1.52618H3.60727C3.89109 1.52355 4.16624 1.61796 4.38144 1.7918C4.59665 1.96564 4.73721 2.20705 4.77693 2.47104C4.85098 2.99844 4.98832 3.51629 5.18631 4.01469C5.265 4.21131 5.28203 4.425 5.23539 4.63043C5.18874 4.83587 5.08038 5.02444 4.92314 5.17379L4.1804 5.87146C5.01294 7.24675 6.22524 8.38548 7.6894 9.1675L8.43213 8.46984C8.59114 8.32214 8.7919 8.22035 9.0106 8.17654C9.22931 8.13273 9.45681 8.14872 9.66613 8.22263C10.1967 8.40861 10.748 8.53761 11.3095 8.60717C11.5936 8.64482 11.8531 8.77923 12.0385 8.98484C12.224 9.19045 12.3225 9.45292 12.3154 9.72233Z" stroke="white" stroke-linecap="round" stroke-linejoin="round"/>
</svg>
